<?xml version="1.0" encoding="UTF-8" standalone="no"?>
<!-- Created with Inkscape (http://www.inkscape.org/) -->
<svg
   xmlns:svg="http://www.w3.org/2000/svg"
   xmlns="http://www.w3.org/2000/svg"
   version="1.0"
   width="132.15625"
   height="132.125"
   id="svg2">
  <defs
     id="defs4" />
  <g
     transform="translate(-57.84375,-81.65625)"
     id="layer1">
    <path
       d="M 74.945902,87.715732 C 68.835795,87.715732 63.904665,92.618477 63.904665,98.728585 L 63.904665,196.70892 C 63.904665,202.81902 68.835798,207.72178 74.945902,207.72177 L 172.89785,207.72177 C 179.00795,207.72177 183.93908,202.81903 183.93908,196.70892 L 183.93908,98.728585 C 183.93908,92.618478 179.00796,87.715732 172.89785,87.715732 L 74.945902,87.715732 z M 78.834461,95.663152 L 81.417372,95.663152 L 81.417372,102.8726 L 88.711968,102.8726 L 88.711968,105.39874 L 81.417372,105.39874 L 81.417372,112.60819 L 78.834461,112.60819 L 78.834461,105.39874 L 71.539865,105.39874 L 71.539865,102.8726 L 78.834461,102.8726 L 78.834461,95.663152 z M 145.64955,97.195868 L 147.49449,99.012421 L 142.4422,104.14986 L 147.63641,109.25892 L 145.87662,111.04709 L 140.68242,105.96641 L 135.63013,111.10385 L 133.75681,109.2873 L 138.80909,104.14986 L 133.61489,99.040805 L 135.37467,97.224252 L 140.59726,102.33331 L 145.64955,97.195868 z M 170.0311,98.160912 C 170.92848,98.160914 171.64897,98.881398 171.64897,99.77878 C 171.64897,100.67616 170.92848,101.42503 170.0311,101.42503 C 169.13371,101.42503 168.41323,100.67616 168.41323,99.77878 C 168.41323,98.8814 169.13372,98.160912 170.0311,98.160912 z M 104.2662,102.70229 L 114.00179,102.70229 L 114.00179,105.54066 L 104.2662,105.54066 L 104.2662,102.70229 z M 165.03558,102.70229 L 174.79955,102.70229 L 174.79955,105.54066 L 165.03558,105.54066 L 165.03558,102.70229 z M 170.0311,106.61924 C 170.92848,106.61924 171.64897,107.33973 171.64897,108.2371 C 171.64897,109.13448 170.92848,109.85497 170.0311,109.85497 C 169.13371,109.85497 168.41323,109.13448 168.41323,108.2371 C 168.41323,107.33972 169.13372,106.61924 170.0311,106.61924 z"
       id="rect2441"
       style="opacity:1;fill:#ffcc00;fill-opacity:1;stroke:none;stroke-width:0.5;stroke-linecap:round;stroke-linejoin:round;stroke-miterlimit:4;stroke-dasharray:none" />
    <path
       d="M 167.92571,150.24128 L 160.2568,155.67655 L 158.24584,152.17725 L 166.88273,148.23033 L 158.24584,144.21068 L 160.2568,140.78637 L 167.92571,146.14665 L 167.1804,136.83944 L 171.05235,136.83944 L 170.30704,146.14665 L 177.97822,140.78637 L 179.98691,144.21068 L 171.35002,148.23033 L 179.98691,152.17725 L 177.97822,155.67655 L 170.30704,150.24128 L 171.05235,159.54849 L 167.1804,159.54849 L 167.92571,150.24128 z"
       id="text2487"
       style="font-size:81.97689819px;font-style:normal;font-variant:normal;font-weight:normal;font-stretch:normal;text-align:center;line-height:100%;writing-mode:lr-tb;text-anchor:middle;fill:#fff6d5;fill-opacity:1;stroke:none;stroke-width:1px;stroke-linecap:butt;stroke-linejoin:miter;stroke-opacity:1;font-family:Gotham Book;-inkscape-font-specification:Gotham Book" />
    <path
       d="M 73.256253,127.12108 L 70.547169,127.12108 L 70.547169,124.92776 L 78.468119,124.92776 L 78.468119,127.12108 L 75.759035,127.12108 L 75.759035,133.95856 L 73.256253,133.95856 L 73.256253,127.12108 z M 79.566949,124.92776 L 81.902014,124.92776 L 85.617408,129.70143 L 85.617408,124.92776 L 88.094205,124.92776 L 88.094205,133.95856 L 85.901269,133.95856 L 82.043748,129.00458 L 82.043748,133.95856 L 79.566949,133.95856 L 79.566949,124.92776 z M 93.385599,129.41757 C 93.832844,129.41757 94.183371,129.31219 94.437185,129.10142 C 94.690988,128.89067 94.817892,128.60471 94.817898,128.24354 L 94.817898,128.21755 C 94.817892,127.83068 94.690988,127.53619 94.437185,127.33408 C 94.183371,127.13198 93.828513,127.03094 93.372607,127.03093 L 92.198972,127.03093 L 92.198972,129.41757 L 93.385599,129.41757 z M 89.69619,124.92776 L 93.56631,124.92776 C 94.134027,124.92777 94.650108,124.99877 95.114554,125.14075 C 95.578989,125.28276 95.974596,125.48919 96.301378,125.76005 C 96.628145,126.03092 96.879723,126.3642 97.056111,126.75986 C 97.232483,127.15554 97.320672,127.60272 97.320681,128.10141 L 97.320681,128.1274 C 97.320672,128.66047 97.223887,129.12918 97.030323,129.53351 C 96.836744,129.93786 96.567975,130.27762 96.224015,130.55281 C 95.880042,130.82802 95.469342,131.03438 94.991915,131.17191 C 94.514477,131.30945 93.996231,131.37822 93.437175,131.37822 L 92.198972,131.37822 L 92.198972,133.95856 L 89.69619,133.95856 L 89.69619,124.92776 z M 101.96719,124.92776 L 104.6117,124.92776 L 106.76606,128.42425 L 108.9208,124.92776 L 111.56532,124.92776 L 111.56532,133.95856 L 109.07553,133.95856 L 109.07553,128.77228 L 106.76606,132.30736 L 106.71448,132.30736 L 104.41839,128.79827 L 104.41839,133.95856 L 101.96719,133.95856 L 101.96719,124.92776 z M 118.46972,130.39789 L 117.46342,127.83055 L 116.44411,130.39789 L 118.46972,130.39789 z M 116.2764,124.86358 L 118.68902,124.86358 L 122.53355,133.95856 L 119.85006,133.95856 L 119.19217,132.34594 L 115.70907,132.34594 L 115.06379,133.95856 L 112.43226,133.95856 L 116.2764,124.86358 z M 125.61586,127.12108 L 122.90678,127.12108 L 122.90678,124.92776 L 130.82773,124.92776 L 130.82773,127.12108 L 128.11864,127.12108 L 128.11864,133.95856 L 125.61586,133.95856 L 125.61586,127.12108 z M 131.92657,124.92776 L 134.42934,124.92776 L 134.42934,128.30811 L 137.64159,128.30811 L 137.64159,124.92776 L 140.14436,124.92776 L 140.14436,133.95856 L 137.64159,133.95856 L 137.64159,130.52703 L 134.42934,130.52703 L 134.42934,133.95856 L 131.92657,133.95856 L 131.92657,124.92776 z M 149.89802,131.92035 C 150.21639,131.92035 150.52177,131.86445 150.81417,131.75263 L 149.56297,130.68175 L 150.82716,129.26244 L 152.05276,130.3719 C 152.1559,130.10551 152.20748,129.81311 152.20749,129.49474 L 152.20749,129.46914 C 152.20748,129.14237 152.15158,128.83062 152.03977,128.5339 C 151.92795,128.23718 151.76883,127.97484 151.56241,127.74688 C 151.35596,127.51893 151.10871,127.33829 150.82066,127.20494 C 150.53259,127.07162 150.21651,127.00495 149.87242,127.00494 C 149.52832,127.00495 149.21651,127.07162 148.93698,127.20494 C 148.65745,127.33829 148.41663,127.51676 148.21453,127.74038 C 148.01242,127.96402 147.85764,128.22202 147.75016,128.51441 C 147.64267,128.80681 147.58893,129.11638 147.58893,129.44315 L 147.58893,129.46914 C 147.58893,129.79592 147.64484,130.10767 147.75665,130.40439 C 147.86846,130.70112 148.02541,130.96128 148.22752,131.18491 C 148.42962,131.40854 148.67261,131.58701 148.95647,131.72035 C 149.24032,131.85368 149.55417,131.92035 149.89802,131.92035 L 149.89802,131.92035 z M 152.62048,133.33926 C 152.23333,133.58861 151.80754,133.78428 151.34311,133.92628 C 150.87866,134.06827 150.38843,134.13927 149.87242,134.13927 C 149.17582,134.13927 148.53081,134.0167 147.93736,133.77155 C 147.34392,133.5264 146.83216,133.19313 146.40211,132.77173 C 145.97205,132.35034 145.63445,131.85578 145.3893,131.28805 C 145.14416,130.72034 145.02158,130.11403 145.02158,129.46914 L 145.02158,129.44315 C 145.02158,128.79828 145.14416,128.18981 145.3893,127.61775 C 145.63445,127.0457 145.97631,126.54681 146.4149,126.12108 C 146.85349,125.69536 147.3695,125.35999 147.96295,125.11496 C 148.55639,124.86996 149.20141,124.74745 149.89802,124.74744 C 150.59486,124.74745 151.24001,124.86996 151.83346,125.11496 C 152.4269,125.35999 152.93859,125.69325 153.36852,126.11478 C 153.79844,126.53631 154.13597,127.03087 154.38113,127.59845 C 154.62627,128.16605 154.74884,128.77242 154.74885,129.41757 L 154.74885,129.44315 C 154.74884,129.9248 154.68007,130.38497 154.54255,130.82368 C 154.405,131.26241 154.20723,131.66668 153.94924,132.03649 L 154.87799,132.82311 L 153.6138,134.22943 L 152.62048,133.33926 z M 160.10403,134.12628 C 159.45887,134.12628 158.87829,134.04458 158.36227,133.88119 C 157.84626,133.71781 157.4076,133.46623 157.04632,133.12646 C 156.68502,132.7867 156.40766,132.35664 156.21423,131.83629 C 156.02078,131.31595 155.92406,130.70315 155.92406,129.99788 L 155.92406,124.92776 L 158.46543,124.92776 L 158.46543,129.94631 C 158.46543,130.60013 158.61595,131.08399 158.917,131.3979 C 159.21806,131.71182 159.62226,131.86878 160.12961,131.86877 C 160.63697,131.86878 161.04117,131.71825 161.34223,131.41719 C 161.64328,131.11615 161.7938,130.64737 161.7938,130.01088 L 161.7938,124.92776 L 164.33517,124.92776 L 164.33517,129.93332 C 164.33516,130.66457 164.23412,131.29462 164.03202,131.8235 C 163.82992,132.35237 163.54612,132.7867 163.18063,133.12646 C 162.81513,133.46623 162.37222,133.71781 161.85188,133.88119 C 161.33153,134.04458 160.74891,134.12628 160.10403,134.12628 L 160.10403,134.12628 z M 165.86826,124.92776 L 168.38364,124.92776 L 168.38364,133.95856 L 165.86826,133.95856 L 165.86826,124.92776 z M 169.74074,132.13965 L 174.26874,127.04352 L 169.89547,127.04352 L 169.89547,124.92776 L 177.72626,124.92776 L 177.72626,126.74706 L 173.19826,131.84279 L 177.72626,131.84279 L 177.72626,133.95856 L 169.74074,133.95856 L 169.74074,132.13965 z"
       id="text2471"
       style="font-size:14.20374107px;font-style:normal;font-variant:normal;font-weight:900;font-stretch:normal;text-align:center;line-height:100%;writing-mode:lr-tb;text-anchor:middle;fill:#000000;fill-opacity:1;stroke:none;stroke-width:1px;stroke-linecap:butt;stroke-linejoin:miter;stroke-opacity:1;font-family:Gotham Black;-inkscape-font-specification:Gotham Black Heavy" />
    <path
       d="M 71.603787,137.12945 L 87.272596,137.12945 L 87.272596,139.40344 L 74.065052,139.40344 L 74.065052,147.19126 L 85.87132,147.19126 L 85.87132,149.43482 L 74.065052,149.43482 L 74.065052,158.93574 L 71.603787,158.93574 L 71.603787,137.12945 z M 92.264521,137.12945 L 94.725785,137.12945 L 94.725785,158.93574 L 92.264521,158.93574 L 92.264521,137.12945 z M 110.27101,148.25125 C 111.08096,148.25125 111.8285,148.14732 112.51362,147.93943 C 113.19871,147.73157 113.7905,147.43559 114.28898,147.05151 C 114.78742,146.66746 115.17688,146.20021 115.45734,145.64976 C 115.73777,145.09934 115.87799,144.47112 115.87801,143.76508 L 115.87801,143.70233 C 115.87799,142.35304 115.38998,141.29923 114.414,140.5409 C 113.43796,139.78261 112.06743,139.40346 110.30238,139.40344 L 103.5736,139.40344 L 103.5736,148.25125 L 110.27101,148.25125 z M 101.11233,137.12945 L 110.48871,137.12945 C 111.83863,137.12948 113.03806,137.32167 114.08696,137.70603 C 115.13585,138.09044 116.00284,138.62519 116.68797,139.31027 C 117.22793,139.85027 117.64337,140.48373 117.93429,141.21065 C 118.22518,141.93761 118.37063,142.73711 118.37065,143.60916 L 118.37065,143.67191 C 118.37063,144.5852 118.22518,145.40007 117.93429,146.11653 C 117.64337,146.83303 117.23316,147.45619 116.70366,147.98601 C 116.17413,148.51586 115.5459,148.95205 114.81898,149.2946 C 114.09202,149.63717 113.30297,149.88101 112.45183,150.02614 L 119.14924,158.93574 L 116.12709,158.93574 L 109.80328,150.46249 L 109.74148,150.46249 L 103.5736,150.46249 L 103.5736,158.93574 L 101.11233,158.93574 L 101.11233,137.12945 z M 131.10001,159.24755 C 129.35585,159.24755 127.76207,158.96188 126.31866,158.39053 C 124.87522,157.81918 123.49947,156.94188 122.19136,155.75862 L 123.71717,153.95142 C 124.85986,154.99018 126.0127,155.76385 127.17568,156.27245 C 128.33865,156.78106 129.67813,157.03536 131.19412,157.03536 C 132.66827,157.03536 133.84662,156.68758 134.72916,155.99201 C 135.61167,155.29645 136.05294,154.40869 136.05296,153.32873 L 136.05296,153.26599 C 136.05294,152.76785 135.96991,152.31628 135.80388,151.91129 C 135.63782,151.50632 135.34707,151.13762 134.93165,150.8052 C 134.5162,150.47279 133.93994,150.1716 133.20288,149.90159 C 132.46578,149.63162 131.52621,149.37209 130.38416,149.123 C 129.13815,148.85302 128.05297,148.54153 127.12862,148.1885 C 126.20425,147.8355 125.44103,147.40976 124.83895,146.91129 C 124.23686,146.41284 123.79037,145.83135 123.49947,145.16683 C 123.20856,144.50232 123.06311,143.72358 123.06311,142.83057 L 123.06311,142.76783 C 123.06311,141.91669 123.23962,141.12764 123.59263,140.40068 C 123.94564,139.67376 124.4441,139.04554 125.08802,138.51599 C 125.73193,137.98649 126.48992,137.57122 127.362,137.27015 C 128.23407,136.96913 129.18948,136.81861 130.22825,136.81859 C 131.82726,136.81861 133.22378,137.04186 134.41781,137.48833 C 135.61183,137.93484 136.76974,138.60459 137.89154,139.49756 L 136.45794,141.39793 C 135.44072,140.56706 134.41812,139.96467 133.39015,139.59072 C 132.36216,139.21681 131.28728,139.02985 130.16551,139.02983 C 128.73254,139.02985 127.60077,139.36733 126.77022,140.04228 C 125.93965,140.71727 125.52437,141.55321 125.52438,142.55013 L 125.52438,142.61287 C 125.52437,143.13195 125.6074,143.59397 125.77345,143.99894 C 125.9395,144.40393 126.24054,144.77771 126.67658,145.12024 C 127.11261,145.46281 127.71485,145.77431 128.48331,146.05474 C 129.25176,146.3352 130.23838,146.59996 131.4432,146.84902 C 133.87308,147.38901 135.66428,148.1367 136.81681,149.09211 C 137.96931,150.04753 138.54558,151.3558 138.54559,153.01692 L 138.54559,153.07966 C 138.54558,154.01385 138.35861,154.85994 137.9847,155.61792 C 137.61076,156.37592 137.09677,157.02491 136.44273,157.56488 C 135.78866,158.10486 135.00468,158.52029 134.09079,158.8112 C 133.17687,159.1021 132.17995,159.24755 131.10001,159.24755 L 131.10001,159.24755 z M 149.3432,139.40344 L 142.02311,139.40344 L 142.02311,137.12945 L 159.15594,137.12945 L 159.15594,139.40344 L 151.83584,139.40344 L 151.83584,158.93574 L 149.3432,158.93574 L 149.3432,139.40344 z"
       id="text2479"
       style="font-size:34.29713821px;font-style:normal;font-variant:normal;font-weight:normal;font-stretch:normal;text-align:center;line-height:100%;writing-mode:lr-tb;text-anchor:middle;fill:#000000;fill-opacity:1;stroke:none;stroke-width:1px;stroke-linecap:butt;stroke-linejoin:miter;stroke-opacity:1;font-family:Gotham Book;-inkscape-font-specification:Gotham Book" />
    <path
       d="M 78.799184,174.83842 C 79.724929,174.83843 80.569869,174.72 81.334009,174.48313 C 82.098121,174.24628 82.754658,173.90726 83.303623,173.46605 C 83.852556,173.02486 84.272398,172.50286 84.563151,171.90001 C 84.85387,171.2972 84.999238,170.61898 84.999255,169.86536 L 84.999255,169.80031 C 84.999238,168.186 84.444868,166.96426 83.336146,166.13506 C 82.227392,165.30591 80.758109,164.89133 78.928291,164.89131 L 73.212123,164.89131 L 73.212123,174.83842 L 78.799184,174.83842 z M 70.660543,162.53388 L 79.121458,162.53388 C 80.392142,162.5339 81.549501,162.70079 82.593537,163.03454 C 83.637543,163.36833 84.530939,163.84205 85.27373,164.45569 C 86.016485,165.06937 86.586951,165.81757 86.985131,166.70028 C 87.383272,167.58301 87.582352,168.58416 87.582372,169.70373 L 87.582372,169.76779 C 87.582352,170.99513 87.345657,172.06626 86.872286,172.98116 C 86.398876,173.89609 85.758436,174.6658 84.950964,175.29029 C 84.143456,175.91481 83.201439,176.38311 82.124909,176.69519 C 81.048351,177.00729 79.907254,177.16333 78.701615,177.16332 L 73.212123,177.16332 L 73.212123,185.14033 L 70.660543,185.14033 L 70.660543,162.53388 z M 92.232179,162.53388 L 94.783757,162.53388 L 94.783757,182.78291 L 107.50716,182.78291 L 107.50716,185.14033 L 92.232179,185.14033 L 92.232179,162.53388 z M 126.88891,176.87259 L 121.75421,165.34367 L 116.58699,176.87259 L 126.88891,176.87259 z M 120.59127,162.37323 L 122.98121,162.37323 L 133.28313,185.14033 L 130.5374,185.14033 L 127.89022,179.16595 L 115.58568,179.16595 L 112.90499,185.14033 L 110.28936,185.14033 L 120.59127,162.37323 z M 148.04366,185.52766 C 146.40699,185.52766 144.89976,185.22625 143.52198,184.62341 C 142.14418,184.02059 140.94937,183.19717 139.93755,182.15315 C 138.92572,181.10913 138.13448,179.87653 137.56386,178.45537 C 136.99322,177.03423 136.70791,175.51649 136.70791,173.90216 L 136.70791,173.8371 C 136.70791,172.24382 136.99322,170.73676 137.56386,169.31591 C 138.13448,167.8951 138.92572,166.65184 139.93755,165.58611 C 140.94937,164.52043 142.15501,163.68075 143.5545,163.06706 C 144.95397,162.45341 146.48254,162.14658 148.14025,162.14656 C 149.17374,162.14658 150.10492,162.23265 150.93378,162.40477 C 151.76261,162.57694 152.53232,162.81921 153.24291,163.13161 C 153.95347,163.44405 154.61017,163.82086 155.21302,164.26204 C 155.81582,164.70325 156.39713,165.1929 156.95694,165.73099 L 155.21252,167.60451 C 154.24405,166.70046 153.20544,165.95769 152.09672,165.37619 C 150.98797,164.79474 149.6583,164.504 148.10772,164.50398 C 146.85935,164.504 145.70232,164.74086 144.63663,165.21456 C 143.57092,165.6883 142.64516,166.345 141.85936,167.18467 C 141.07355,168.02437 140.45988,169.00942 140.01836,170.13983 C 139.57683,171.27027 139.35607,172.48134 139.35608,173.77304 L 139.35608,173.8371 C 139.35607,175.15052 139.57683,176.37243 140.01836,177.50284 C 140.45988,178.63328 141.07355,179.61833 141.85936,180.458 C 142.64516,181.2977 143.57092,181.95965 144.63663,182.44388 C 145.70232,182.92812 146.85935,183.17023 148.10772,183.17023 C 149.6583,183.17023 150.99322,182.88492 152.11249,182.31429 C 153.23173,181.74365 154.32979,180.94192 155.40668,179.90906 L 157.08605,181.5559 C 156.50456,182.15841 155.89631,182.70193 155.26131,183.18649 C 154.62627,183.67105 153.9428,184.08547 153.21088,184.42976 C 152.47893,184.77404 151.69312,185.04309 150.85346,185.23692 C 150.01376,185.43075 149.07716,185.52766 148.04366,185.52766 L 148.04366,185.52766 z M 161.55156,162.53388 L 177.89291,162.53388 L 177.89291,164.85976 L 164.10314,164.85976 L 164.10314,172.57758 L 176.43922,172.57758 L 176.43922,174.90347 L 164.10314,174.90347 L 164.10314,182.81544 L 178.05354,182.81544 L 178.05354,185.14033 L 161.55156,185.14033 L 161.55156,162.53388 z"
       id="text2483"
       style="font-size:35.55566788px;font-style:normal;font-variant:normal;font-weight:normal;font-stretch:normal;text-align:center;line-height:100%;writing-mode:lr-tb;text-anchor:middle;fill:#000000;fill-opacity:1;stroke:none;stroke-width:1px;stroke-linecap:butt;stroke-linejoin:miter;stroke-opacity:1;font-family:Gotham Book;-inkscape-font-specification:Gotham Book" />
  </g>
</svg>
